<!DOCTYPE svg PUBLIC "-//W3C//DTD SVG 1.1//EN" "http://www.w3.org/Graphics/SVG/1.1/DTD/svg11.dtd">
<!-- Uploaded to: SVG Repo, www.svgrepo.com, Transformed by: SVG Repo Mixer Tools -->
<svg fill="#e8efed" version="1.1" id="Layer_1" xmlns="http://www.w3.org/2000/svg" xmlns:xlink="http://www.w3.org/1999/xlink" viewBox="0 0 511.999 511.999" xml:space="preserve" width="800px" height="800px">
<g id="SVGRepo_bgCarrier" stroke-width="0"/>
<g id="SVGRepo_tracerCarrier" stroke-linecap="round" stroke-linejoin="round"/>
<g id="SVGRepo_iconCarrier"> <g> <g> <rect x="163.431" y="131.108" width="104.716" height="30.417"/> </g> </g> <g> <g> <rect x="115.727" y="181.804" width="200.135" height="30.417"/> </g> </g> <g> <g> <rect x="115.727" y="232.499" width="200.135" height="30.417"/> </g> </g> <g> <g> <rect x="115.727" y="283.205" width="200.135" height="30.417"/> </g> </g> <g> <g> <rect x="115.727" y="380.185" width="200.135" height="30.417"/> </g> </g> <g> <g> <rect x="115.727" y="430.88" width="200.135" height="30.417"/> </g> </g> <g> <g> <path d="M466.184,0H126.223v40.203H86.019v40.203H45.815v431.592h339.961v-40.203h40.203v-40.203h40.205L466.184,0L466.184,0z M355.359,471.796v9.787h-0.001H76.232V110.824h9.787h269.339V471.796z M395.562,431.593v9.786h-9.786V80.408H116.437v-9.786 h9.786h269.339V431.593z M435.767,401.175h-9.787V40.203H156.64v-9.786h279.127V401.175z"/> </g> </g> </g>
</svg>