<svg xmlns="http://www.w3.org/2000/svg" width="24" height="24" viewBox="0 0 24 24">
  <g id="vuesax_bold_setting-2" data-name="vuesax/bold/setting-2" transform="translate(-300 -190)">
    <g id="setting-2">
      <g id="Group_73195" data-name="Group 73195">
        <g id="_64091722016345278594481" data-name="64091722016345278594481" transform="translate(301.707 191.703)">
          <path id="Path_1874" data-name="Path 1874" d="M16.966,4.344,14.126,1.49A2.13,2.13,0,0,0,12.605.858H5.148A2.148,2.148,0,0,0,3,3V17.591a2.148,2.148,0,0,0,2.145,2.145h10.3a2.148,2.148,0,0,0,2.145-2.145V5.857a2.134,2.134,0,0,0-.625-1.513Zm-.837.376H14.158a.429.429,0,0,1-.429-.429V2.308Zm.6,12.871a1.287,1.287,0,0,1-1.287,1.287H5.148a1.287,1.287,0,0,1-1.287-1.287V3A1.287,1.287,0,0,1,5.148,1.716h7.457a1.276,1.276,0,0,1,.266.029V4.29a1.287,1.287,0,0,0,1.287,1.287H16.7a1.286,1.286,0,0,1,.033.279Z" fill="#fff"/>
          <path id="Path_1875" data-name="Path 1875" d="M14.587,7.723H7.294a.429.429,0,0,0,0,.858h7.294a.429.429,0,0,0,0-.858Z" fill="#fff"/>
          <path id="Path_1876" data-name="Path 1876" d="M14.587,9.868H6.007a.429.429,0,0,0,0,.858h8.581a.429.429,0,0,0,0-.858Z" fill="#fff"/>
          <path id="Path_1877" data-name="Path 1877" d="M14.587,12.013H6.007a.429.429,0,0,0,0,.858h8.581a.429.429,0,0,0,0-.858Z" fill="#fff"/>
          <path id="Path_1878" data-name="Path 1878" d="M14.587,14.158H6.007a.429.429,0,0,0,0,.858h8.581a.429.429,0,0,0,0-.858Z" fill="#fff"/>
          <path id="Path_1879" data-name="Path 1879" d="M12.442,16.3H6.007a.429.429,0,0,0,0,.858h6.436a.429.429,0,0,0,0-.858Z" fill="#fff"/>
          <path id="Path_1880" data-name="Path 1880" d="M5.964,6.2,6.2,5.72h1.33l.239.478a.429.429,0,0,0,.768-.384L7.252,3.241a.447.447,0,0,0-.768,0L5.2,5.815a.429.429,0,1,0,.768.384ZM7.1,4.862H6.63l.236-.472Z" fill="#fff"/>
          <path id="Path_1881" data-name="Path 1881" d="M8.8,4.934H9.01v.215a.429.429,0,0,0,.858,0V4.934h.215a.429.429,0,0,0,0-.858H9.868V3.861a.429.429,0,0,0-.858,0v.215H8.8a.429.429,0,0,0,0,.858Z" fill="#fff"/>
        </g>
      </g>
      <path id="Vector" d="M0,0H24V24H0Z" transform="translate(324 214) rotate(180)" fill="none" opacity="0"/>
    </g>
  </g>
</svg>
