<svg id="vuesax_bold_image" data-name="vuesax/bold/image" xmlns="http://www.w3.org/2000/svg" width="69.213" height="69.213" viewBox="0 0 69.213 69.213">
  <g id="image">
    <path id="Vector" d="M58.9,27.318,49.876,6.208c-1.644-3.864-4.1-6.056-6.892-6.2-2.769-.144-5.451,1.788-7.5,5.479l-5.479,9.834c-1.154,2.076-2.8,3.316-4.585,3.461-1.817.173-3.634-.779-5.1-2.653l-.634-.807c-2.048-2.567-4.585-3.807-7.181-3.547s-4.816,2.048-6.287,4.96L1.225,26.683a11.484,11.484,0,0,0,10.267,16.64h36.8a11.5,11.5,0,0,0,9.6-5.162A11.288,11.288,0,0,0,58.9,27.318Z" transform="translate(4.6 21.189)" fill="#fff"/>
    <path id="Vector-2" data-name="Vector" d="M19.495,9.747A9.747,9.747,0,1,1,9.747,0,9.747,9.747,0,0,1,19.495,9.747Z" transform="translate(10.353 4.672)" fill="#fff"/>
    <path id="Vector-3" data-name="Vector" d="M0,0H69.213V69.213H0Z" fill="none" opacity="0"/>
  </g>
</svg>
