<svg xmlns="http://www.w3.org/2000/svg" width="24" height="24" viewBox="0 0 24 24">
  <g id="vuesax_bold_status-up" data-name="vuesax/bold/status-up" transform="translate(-236 -252)">
    <g id="status-up">
      <path id="Vector" d="M14.19,0H5.81C2.17,0,0,2.17,0,5.81v8.37C0,17.83,2.17,20,5.81,20h8.37c3.64,0,5.81-2.17,5.81-5.81V5.81C20,2.17,17.83,0,14.19,0ZM5.63,16.15a.75.75,0,0,1-1.5,0V14.08a.75.75,0,1,1,1.5,0Zm5.12,0a.75.75,0,0,1-1.5,0V12a.75.75,0,0,1,1.5,0Zm5.12,0a.75.75,0,0,1-1.5,0V9.93a.75.75,0,0,1,1.5,0Zm0-9.38a.75.75,0,0,1-1.5,0V5.8a19.532,19.532,0,0,1-9.31,5.36.554.554,0,0,1-.18.02.757.757,0,0,1-.73-.57A.748.748,0,0,1,4.7,9.7a18.071,18.071,0,0,0,8.75-5.11H12.2a.75.75,0,0,1,0-1.5h2.93c.04,0,.07.02.11.02a.8.8,0,0,1,.15.03,1,1,0,0,1,.14.08c.03.02.06.03.09.05.01.01.01.02.02.02a1.059,1.059,0,0,1,.1.12.338.338,0,0,1,.07.11.5.5,0,0,1,.03.13.758.758,0,0,1,.03.16c0,.01.01.02.01.03V6.77Z" transform="translate(238 254)" fill="#e8efed"/>
      <path id="Vector-2" data-name="Vector" d="M0,0H24V24H0Z" transform="translate(260 276) rotate(180)" fill="none" opacity="0"/>
    </g>
  </g>
</svg>
